<svg width="11" height="8" viewBox="0 0 11 8" fill="none" xmlns="http://www.w3.org/2000/svg">
<path fill-rule="evenodd" clip-rule="evenodd" d="M7.67157 0.46444L10.8536 3.64642C11.0488 3.84168 11.0488 4.15827 10.8536 4.35353L7.67157 7.53551C7.47631 7.73077 7.15973 7.73077 6.96447 7.53551C6.7692 7.34025 6.7692 7.02366 6.96447 6.8284L9.29289 4.49997L0.5 4.49997C0.223857 4.49997 -5.96046e-08 4.27611 0 3.99997C8.9407e-08 3.72383 0.223858 3.49997 0.5 3.49997L9.29289 3.49997L6.96447 1.17155C6.7692 0.976284 6.7692 0.659702 6.96447 0.46444C7.15973 0.269178 7.47631 0.269178 7.67157 0.46444Z" fill="#ECECEC"/>
</svg>
