<svg width="15" height="15" viewBox="0 0 15 15" fill="none" xmlns="http://www.w3.org/2000/svg">
<path fill-rule="evenodd" clip-rule="evenodd" d="M2.14392 12.75C2.17893 12.7857 2.21429 12.8211 2.25 12.8561C2.36913 12.9729 2.49213 13.0857 2.6188 13.1944C3.93065 14.3199 5.63591 15 7.5 15C11.6421 15 15 11.6421 15 7.5C15 5.63591 14.3199 3.93065 13.1944 2.6188C13.0857 2.49213 12.9729 2.36913 12.8561 2.25C12.8211 2.21429 12.7857 2.17893 12.75 2.14392C12.6666 2.06221 12.5814 1.98243 12.4943 1.90465C11.1681 0.720074 9.41814 0 7.5 0C3.35786 0 0 3.35786 0 7.5C0 9.41814 0.720074 11.1681 1.90465 12.4943C1.98243 12.5814 2.06221 12.6666 2.14392 12.75ZM11.7859 2.61304C10.6411 1.60799 9.14229 1 7.5 1C3.91015 1 1 3.91015 1 7.5C1 9.14229 1.60799 10.6411 2.61304 11.7859L11.7859 2.61304ZM12.4849 3.32828L3.32828 12.4849C4.45772 13.4313 5.91165 14 7.5 14C11.0899 14 14 11.0899 14 7.5C14 5.91165 13.4313 4.45772 12.4849 3.32828Z" fill="#ECECEC"/>
</svg>
