<svg width="18" height="11" viewBox="0 0 18 11" fill="none" xmlns="http://www.w3.org/2000/svg">
<path fill-rule="evenodd" clip-rule="evenodd" d="M9 2.35714C7.21373 2.35714 5.75 3.75576 5.75 5.5C5.75 7.24424 7.21373 8.64286 9 8.64286C10.7863 8.64286 12.25 7.24424 12.25 5.5C12.25 3.75576 10.7863 2.35714 9 2.35714ZM6.91667 5.5C6.91667 4.40392 7.84076 3.5 9 3.5C10.1592 3.5 11.0833 4.40392 11.0833 5.5C11.0833 6.59608 10.1592 7.5 9 7.5C7.84076 7.5 6.91667 6.59608 6.91667 5.5Z" fill="#ECECEC"/>
<path fill-rule="evenodd" clip-rule="evenodd" d="M17.1953 5.65612L17.1946 5.65697L17.1923 5.65988L17.1837 5.67047L17.169 5.68841L17.1512 5.71005C17.1228 5.74434 17.081 5.79406 17.0265 5.85703C16.9174 5.98293 16.7574 6.16189 16.5517 6.37622C16.1407 6.80458 15.5459 7.37577 14.8103 7.9474C13.3452 9.0859 11.2909 10.25 9 10.25C6.70914 10.25 4.65483 9.0859 3.18975 7.9474C2.45413 7.37577 1.85935 6.80458 1.4483 6.37622C1.24264 6.16189 1.0826 5.98293 0.973557 5.85703C0.919027 5.79406 0.877221 5.74434 0.84881 5.71005C0.834604 5.69291 0.823745 5.67962 0.816316 5.67047L0.807755 5.65988L0.805422 5.65697L0.8044 5.65569L1 5.5L0.804747 5.34388L0.805422 5.34303L0.807755 5.34012L0.816316 5.32953C0.823745 5.32038 0.834604 5.30709 0.84881 5.28995C0.877221 5.25566 0.919027 5.20594 0.973557 5.14297C1.0826 5.01707 1.24264 4.83811 1.4483 4.62378C1.85935 4.19542 2.45413 3.62423 3.18975 3.0526C4.65483 1.9141 6.70914 0.75 9 0.75C11.2909 0.75 13.3452 1.9141 14.8103 3.0526C15.5459 3.62423 16.1407 4.19542 16.5517 4.62378C16.7574 4.83811 16.9174 5.01707 17.0265 5.14297C17.081 5.20594 17.1228 5.25566 17.1512 5.28995C17.1654 5.30709 17.1763 5.32038 17.1837 5.32953L17.1923 5.34012L17.1946 5.34303L17.1955 5.34414L17.3195 5.5L17.1953 5.65612ZM17 5.5C17.1956 5.34431 17.1955 5.34414 17.1955 5.34414L17 5.5ZM17 5.5L17.1953 5.65612C17.1953 5.65612 17.1956 5.65569 17 5.5ZM3.91488 3.94796C5.59132 2.64522 7.31963 1.89286 9 1.89286C10.6804 1.89286 12.4087 2.64522 14.0851 3.94796C14.6812 4.41117 15.2242 4.90902 15.7016 5.40658C15.7319 5.43817 15.7616 5.46932 15.7905 5.5C15.7616 5.53068 15.7319 5.56183 15.7016 5.59342C15.2242 6.09098 14.6812 6.58883 14.0851 7.05204C12.4087 8.35478 10.6804 9.10714 9 9.10714C7.31963 9.10714 5.59132 8.35478 3.91488 7.05204C3.31879 6.58883 2.77584 6.09098 2.29839 5.59342C2.26807 5.56183 2.23845 5.53068 2.20953 5.5C2.23845 5.46932 2.26807 5.43817 2.29839 5.40658C2.77584 4.90902 3.31879 4.41117 3.91488 3.94796Z" fill="#ECECEC"/>
<path d="M0.804747 5.34388C0.804747 5.34388 0.8044 5.34431 1 5.5C0.8044 5.65569 0.8044 5.65569 0.8044 5.65569L0.680481 5.5L0.804747 5.34388Z" fill="#ECECEC"/>
</svg>
