<svg width="15" height="15" viewBox="0 0 15 15" fill="none" xmlns="http://www.w3.org/2000/svg">
<path d="M10.0063 7.31409L10.7375 6.58262C11.0366 6.66684 11.3419 6.70802 11.6456 6.70799C12.5192 6.70792 13.377 6.36655 14.0178 5.72567C14.9604 4.78298 15.2551 3.37124 14.7686 2.12912L14.4911 1.42068L12.7103 3.20167L11.9913 3.00896L11.7986 2.28984L13.5794 0.508882L12.8711 0.231419C11.6292 -0.255077 10.2175 0.0396086 9.27487 0.982303C8.41137 1.84588 8.0916 3.10304 8.41804 4.26287L7.68683 4.99434L6.98294 5.69833L4.58109 8.10042C3.33371 7.70963 1.97281 8.0361 1.03392 8.97508C0.367193 9.64187 0 10.5284 0 11.4714C0 12.4143 0.367193 13.3009 1.03392 13.9677C1.72208 14.6559 2.626 15 3.52998 15C4.43392 15 5.33787 14.6559 6.02603 13.9677C6.96492 13.0287 7.29137 11.6676 6.90061 10.4202L9.30247 8.01808L10.0063 7.31409ZM9.56976 4.51896L9.45097 4.21568C9.10876 3.34204 9.31592 2.34917 9.97876 1.68623C10.4386 1.22635 11.0571 0.98592 11.6847 0.995809L10.6883 1.99233L11.1785 3.8218L13.0078 4.31205L14.0042 3.31556C14.0142 3.94309 13.7737 4.5618 13.3139 5.02168C12.651 5.68456 11.6582 5.8918 10.7847 5.54949L10.4814 5.43072L9.56976 4.51896ZM5.73562 10.1773L5.86563 10.4858C6.268 11.4407 6.05464 12.5311 5.32211 13.2637C4.82793 13.7579 4.17905 14.0049 3.52994 14.0049C2.881 14.0048 2.23183 13.7578 1.73778 13.2637C1.25909 12.7849 0.995429 12.1484 0.995429 11.4713C0.995429 10.7943 1.25906 10.1578 1.73778 9.67901C2.22456 9.19221 2.86909 8.93469 3.52706 8.93469C3.85928 8.93469 4.19501 9.0004 4.51535 9.13543L4.82388 9.26545L7.6868 6.40226L9.56976 4.51896L10.4814 5.43072L8.59851 7.31406L5.73562 10.1773Z" fill="#ECECEC"/>
<path d="M3.5299 9.83075C3.0918 9.83075 2.67991 10.0014 2.37016 10.3112C2.06037 10.621 1.88975 11.0329 1.88975 11.4711C1.88975 11.9092 2.06037 12.3211 2.37012 12.6309C2.67991 12.9407 3.0918 13.1114 3.5299 13.1114C3.968 13.1114 4.37986 12.9407 4.68968 12.6309C5.32913 11.9914 5.32913 10.9507 4.68968 10.3112C4.37989 10.0014 3.968 9.83075 3.5299 9.83075ZM3.98579 11.9269C3.86401 12.0487 3.70212 12.1158 3.52994 12.1158C3.35772 12.1158 3.19586 12.0487 3.07408 11.9269C2.95234 11.8052 2.88527 11.6432 2.88527 11.4711C2.88527 11.2989 2.95234 11.1369 3.07411 11.0152C3.19586 10.8934 3.35775 10.8263 3.52997 10.8263C3.70215 10.8263 3.86405 10.8934 3.98582 11.0152C4.23711 11.2665 4.23711 11.6756 3.98579 11.9269Z" fill="#ECECEC"/>
</svg>
